<?xml version="1.0" encoding="UTF-8"?>
<svg id="Layer_1" data-name="Layer 1" xmlns="http://www.w3.org/2000/svg" viewBox="0 0 18.28 16.25">
  <path id="Icon_awesome-edit" data-name="Icon awesome-edit" d="m12.78,2.64l2.86,2.86c.12.12.12.32,0,.44l-6.93,6.93-2.95.33c-.34.04-.64-.21-.68-.54,0-.05,0-.09,0-.14l.33-2.95,6.93-6.93c.12-.12.32-.12.44,0Zm5.14-.73l-1.55-1.55c-.48-.48-1.27-.48-1.75,0l-1.12,1.12c-.12.12-.12.32,0,.44l2.86,2.86c.12.12.32.12.44,0l1.12-1.12c.48-.48.48-1.27,0-1.75Zm-5.73,9.08v3.23H2.03V4.06h7.29c.1,0,.2-.04.27-.11l1.27-1.27c.15-.15.15-.39,0-.54-.07-.07-.17-.11-.27-.11H1.52c-.84,0-1.52.68-1.52,1.52t0,0v11.17C0,15.57.68,16.25,1.52,16.25c0,0,0,0,0,0h11.18c.84,0,1.52-.68,1.52-1.52h0v-5.01c0-.21-.17-.38-.38-.38-.1,0-.2.04-.27.11l-1.27,1.27c-.07.07-.11.17-.11.27Z"/>
</svg>